<?xml version="1.0" encoding="UTF-8" standalone="no"?>
<svg
   viewBox="0 0 468.90586 348.91565"
   height="348.91565"
   width="468.90585"
   xml:space="preserve"
   id="svg2"
   version="1.1"
   sodipodi:docname="icon_elo2.svg"
   inkscape:version="1.2.2 (732a01da63, 2022-12-09)"
   xmlns:inkscape="http://www.inkscape.org/namespaces/inkscape"
   xmlns:sodipodi="http://sodipodi.sourceforge.net/DTD/sodipodi-0.dtd"
   xmlns="http://www.w3.org/2000/svg"
   xmlns:svg="http://www.w3.org/2000/svg"
   xmlns:rdf="http://www.w3.org/1999/02/22-rdf-syntax-ns#"
   xmlns:cc="http://creativecommons.org/ns#"
   xmlns:dc="http://purl.org/dc/elements/1.1/"><sodipodi:namedview
     pagecolor="#ffffff"
     bordercolor="#666666"
     borderopacity="1"
     objecttolerance="10"
     gridtolerance="10"
     guidetolerance="10"
     inkscape:pageopacity="0"
     inkscape:pageshadow="2"
     inkscape:window-width="1366"
     inkscape:window-height="705"
     id="namedview90"
     showgrid="false"
     inkscape:zoom="1.1893563"
     inkscape:cx="369.10723"
     inkscape:cy="170.68056"
     inkscape:window-x="1432"
     inkscape:window-y="43"
     inkscape:window-maximized="1"
     inkscape:current-layer="g10"
     fit-margin-top="0"
     fit-margin-left="0"
     fit-margin-right="0"
     fit-margin-bottom="0"
     inkscape:showpageshadow="2"
     inkscape:pagecheckerboard="0"
     inkscape:deskcolor="#d1d1d1" /><metadata
     id="metadata8"><rdf:RDF><cc:Work
         rdf:about=""><dc:format>image/svg+xml</dc:format><dc:type
           rdf:resource="http://purl.org/dc/dcmitype/StillImage" /></cc:Work></rdf:RDF></metadata><defs
     id="defs6"><clipPath
       id="clipPath20"
       clipPathUnits="userSpaceOnUse"><path
         id="path18"
         d="M 0,595.28 H 595.28 V 0 H 0 Z"
         inkscape:connector-curvature="0" /></clipPath></defs><g
     transform="matrix(1.3333333,0,0,-1.3333333,-148.21892,501.73283)"
     id="g10"><g
       id="g14"
       transform="matrix(2.5127529,0,0,3.490561,-702.69037,-923.77101)"><g
         clip-path="url(#clipPath20)"
         id="g16"><g
           transform="translate(345.8945,348.2915)"
           id="g56"><path
             id="path58"
             style="fill:#fbc707;fill-opacity:1;fill-rule:nonzero;stroke:none"
             d="m 0,0 c 1.557,0.521 3.221,0.801 4.955,0.801 7.553,0 13.859,-5.366 15.305,-12.501 l 10.709,2.187 C 28.512,2.605 17.799,11.73 4.955,11.73 c -2.947,0 -5.775,-0.479 -8.42,-1.364 z"
             inkscape:connector-curvature="0" /></g><g
           transform="translate(333.2559,313.5845)"
           id="g60"><path
             id="path62"
             style="fill:#38a7e4;fill-opacity:1;fill-rule:nonzero;stroke:none"
             d="m 0,0 7.244,8.188 c -3.234,2.865 -5.273,7.044 -5.273,11.7 0,4.654 2.037,8.831 5.267,11.693 L -0.006,39.77 C -5.498,34.906 -8.961,27.801 -8.961,19.888 -8.961,11.971 -5.494,4.864 0,0"
             inkscape:connector-curvature="0" /></g><g
           transform="translate(366.1504,330.3374)"
           id="g64"><path
             id="path66"
             style="fill:#ef3120;fill-opacity:1;fill-rule:nonzero;stroke:none"
             d="m 0,0 c -1.449,-7.127 -7.75,-12.485 -15.301,-12.485 -1.736,0 -3.404,0.28 -4.959,0.804 l -3.47,-10.368 c 2.646,-0.886 5.48,-1.362 8.429,-1.362 12.832,0 23.543,9.106 26.01,21.218 z"
             inkscape:connector-curvature="0" /></g><g
           transform="translate(407.6289,324.6582)"
           id="g68"><path
             id="path70"
             style="fill:#231f20;fill-opacity:1;fill-rule:nonzero;stroke:none"
             d="m 0,0 c -0.004,-0.005 -0.006,-0.007 -0.008,-0.012 l -0.306,0.208 c -0.877,-1.425 -2.243,-2.577 -3.971,-3.324 -3.287,-1.43 -6.332,-1.063 -8.518,0.855 l -0.201,-0.304 -0.004,0.005 -3.732,-5.579 c 0.926,-0.642 1.92,-1.189 2.965,-1.624 4.119,-1.71 8.334,-1.63 12.486,0.175 3.002,1.299 5.359,3.285 6.971,5.801 z M -11.643,13.763 C -15.109,12.272 -16.9,9.018 -16.531,5.2 l 14.697,6.327 c -2.525,2.972 -5.816,3.955 -9.809,2.236 M -21.4,-3.231 c -0.352,0.568 -0.829,1.479 -1.116,2.147 -1.695,3.937 -1.777,8.011 -0.345,11.922 1.574,4.291 4.584,7.574 8.468,9.246 4.889,2.104 10.293,1.687 14.977,-1.09 C 3.557,17.288 5.666,14.653 7.268,10.927 7.473,10.45 7.65,9.938 7.826,9.506 Z"
             inkscape:connector-curvature="0" /></g><g
           transform="translate(425.6719,352.9595)"
           id="g72"><path
             id="path74"
             style="fill:#231f20;fill-opacity:1;fill-rule:nonzero;stroke:none"
             d="m 0,0 v -31.018 l 4.822,-1.953 -2.74,-6.392 -5.322,2.212 c -1.196,0.519 -2.008,1.311 -2.625,2.205 -0.586,0.911 -1.028,2.161 -1.028,3.843 V 0 Z"
             inkscape:connector-curvature="0" /></g><g
           transform="translate(438.1641,329.8447)"
           id="g76"><path
             id="path78"
             style="fill:#231f20;fill-opacity:1;fill-rule:nonzero;stroke:none"
             d="m 0,0 c 0.002,2.64 1.17,5.009 3.014,6.619 l -4.948,5.515 C -5.289,9.167 -7.4,4.836 -7.406,0.007 c -0.006,-4.834 2.103,-9.17 5.459,-12.144 l 4.939,5.523 C 1.158,-5 -0.002,-2.635 0,0"
             inkscape:connector-curvature="0" /></g><g
           transform="translate(446.9531,321.0415)"
           id="g80"><path
             id="path82"
             style="fill:#231f20;fill-opacity:1;fill-rule:nonzero;stroke:none"
             d="M 0,0 C -0.975,0.002 -1.91,0.164 -2.787,0.456 L -5.15,-6.572 c 1.615,-0.542 3.347,-0.836 5.144,-0.838 7.832,-0.007 14.375,5.551 15.891,12.94 L 8.621,7.011 C 7.797,3.007 4.248,-0.004 0,0"
             inkscape:connector-curvature="0" /></g><g
           transform="translate(446.9746,346.042)"
           id="g84"><path
             id="path86"
             style="fill:#231f20;fill-opacity:1;fill-rule:nonzero;stroke:none"
             d="m 0,0 c -1.797,0.002 -3.523,-0.29 -5.139,-0.827 l 2.344,-7.032 c 0.877,0.289 1.815,0.451 2.789,0.451 4.258,-0.005 7.807,-3.033 8.611,-7.049 l 7.264,1.475 C 14.377,-5.584 7.842,-0.005 0,0"
             inkscape:connector-curvature="0" /></g></g></g></g></svg>
